<svg viewBox="0 0 32 32" xmlns="http://www.w3.org/2000/svg">
  <rect width="32" height="32" fill="#0c1a25" rx="4"/>
  <!-- Left tower -->
  <path d="M 5 8 L 9.5 4.5 L 14 8 L 14 27 L 5 27 Z" fill="#0f766e"/>
  <!-- Right tower -->
  <path d="M 18 8 L 22.5 4.5 L 27 8 L 27 27 L 18 27 Z" fill="#0f766e"/>
  <!-- Tower inner shadows -->
  <path d="M 9.5 4.5 L 14 8 L 14 27 L 9.5 27 Z" fill="#0b6059"/>
  <path d="M 18 8 L 22.5 4.5 L 22.5 27 L 18 27 Z" fill="#0b6059"/>
  <!-- Chevron V -->
  <path d="M 5 12 L 16 24 L 27 12 L 22.5 12 L 16 19.5 L 9.5 12 Z" fill="#16a38a"/>
  <!-- Inner V cutout -->
  <path d="M 9.5 12 L 16 19.5 L 22.5 12 L 19.5 12 L 16 16 L 12.5 12 Z" fill="#0c1a25"/>
  <!-- Dark overlaps -->
  <path d="M 9.5 4.5 L 14 8 L 14 15 L 9.5 12 L 5 12 L 5 8 Z" fill="#094e48"/>
  <path d="M 22.5 4.5 L 27 8 L 27 12 L 22.5 12 L 18 15 L 18 8 Z" fill="#094e48"/>
</svg>
